<?xml version="1.0" encoding="utf-8"?>
<!-- Generator: Adobe Illustrator 18.0.0, SVG Export Plug-In . SVG Version: 6.00 Build 0)  -->
<!DOCTYPE svg PUBLIC "-//W3C//DTD SVG 1.1//EN" "http://www.w3.org/Graphics/SVG/1.1/DTD/svg11.dtd">
<svg version="1.1" id="Layer_1" xmlns="http://www.w3.org/2000/svg" xmlns:xlink="http://www.w3.org/1999/xlink" x="0px" y="0px"
	 viewBox="0 0 32 32" enable-background="new 0 0 32 32" xml:space="preserve">
<g>
	<path fill="#261D38" stroke="#FFFFFF" stroke-width="1.7408" stroke-miterlimit="10" d="M20.9,9.7h-2.4c0.3,0,0.5-0.2,0.5-0.5V8.3
		c0-0.3-0.2-0.5-0.5-0.5c0.3,0,0.5-0.2,0.5-0.5V6.4C19,6.2,18.8,6,18.5,6C18.8,6,19,5.8,19,5.5V4.6c0-0.3-0.2-0.5-0.5-0.5h-0.3
		c0-1.2-1-2.2-2.2-2.2c-1.2,0-2.2,1-2.2,2.2h-0.4c-0.3,0-0.5,0.2-0.5,0.5v0.9c0,0.3,0.2,0.5,0.5,0.5c-0.3,0-0.5,0.2-0.5,0.5v0.9
		c0,0.3,0.2,0.5,0.5,0.5c-0.3,0-0.5,0.2-0.5,0.5v0.9c0,0.3,0.2,0.5,0.5,0.5H11c-0.3,0-0.5,0.2-0.5,0.5v0.9c0,0.3,0.2,0.5,0.5,0.5
		h1.9c0,0,0,0.6-0.1,1.7c0,0.2,0.7,0.6,0.7,0.6s-0.7,0.7-0.7,1c0,2.6,0.1,6.4,0.9,9.6c0.1,0.2,0.5,0.6,0.5,0.6s-0.2,0.7-0.1,1
		c0.4,1.4,1,2.6,1.8,3.3c1.6-1.6,2.4-4.7,2.8-7.9c0-0.3,0.1-0.7,0.1-1c0-0.4-0.4-1.3-0.4-1.3s0.6-0.7,0.6-1.9
		c0.2-3.2-0.1-5.8-0.1-5.8h1.9c0.3,0,0.5-0.2,0.5-0.5v-0.9C21.3,9.9,21.1,9.7,20.9,9.7z"/>
	
		<circle fill="#FFFFFF" stroke="#261D38" stroke-width="0.727" stroke-linecap="round" stroke-linejoin="round" stroke-miterlimit="10" cx="16" cy="4.1" r="2.2"/>
	<path fill="#FFFFFF" stroke="#261D38" stroke-width="0.727" stroke-linecap="round" stroke-miterlimit="10" d="M19,11.6
		c0,0,0.2,2.5,0.1,5.8c-0.1,1.2-0.6,1.9-0.6,1.9s0.5,0.8,0.4,1.3c0,0.3-0.1,0.7-0.1,1c-0.4,3.2-1.2,6.3-2.8,7.9
		c-0.8-0.8-1.4-2-1.8-3.3c-0.1-0.3,0.1-1,0.1-1s-0.5-0.3-0.5-0.6c-0.7-3.2-0.9-7-0.9-9.6c0-0.3,0.7-1,0.7-1s-0.7-0.3-0.7-0.6
		c0-1,0.1-1.7,0.1-1.7H19z"/>
	
		<path fill="#FFFFFF" stroke="#261D38" stroke-width="0.727" stroke-linecap="round" stroke-linejoin="round" stroke-miterlimit="10" d="
		M12.9,4.6c0-0.3,0.2-0.5,0.5-0.5h5.2c0.3,0,0.5,0.2,0.5,0.5v0.9C19,5.8,18.8,6,18.5,6h-5.2c-0.3,0-0.5-0.2-0.5-0.5V4.6z"/>
	
		<path fill="#FFFFFF" stroke="#261D38" stroke-width="0.727" stroke-linecap="round" stroke-linejoin="round" stroke-miterlimit="10" d="
		M12.9,6.4c0-0.3,0.2-0.5,0.5-0.5h5.2C18.8,6,19,6.2,19,6.4v0.9c0,0.3-0.2,0.5-0.5,0.5h-5.2c-0.3,0-0.5-0.2-0.5-0.5V6.4z"/>
	
		<path fill="#FFFFFF" stroke="#261D38" stroke-width="0.727" stroke-linecap="round" stroke-linejoin="round" stroke-miterlimit="10" d="
		M12.9,8.3c0-0.3,0.2-0.5,0.5-0.5h5.2c0.3,0,0.5,0.2,0.5,0.5v0.9c0,0.3-0.2,0.5-0.5,0.5h-5.2c-0.3,0-0.5-0.2-0.5-0.5V8.3z"/>
	
		<path fill="#FFFFFF" stroke="#261D38" stroke-width="0.727" stroke-linecap="round" stroke-linejoin="round" stroke-miterlimit="10" d="
		M20.9,11.6H11c-0.3,0-0.5-0.2-0.5-0.5"/>
	
		<path fill="#FFFFFF" stroke="#261D38" stroke-width="0.727" stroke-linecap="round" stroke-linejoin="round" stroke-miterlimit="10" d="
		M10.5,10.2c0-0.3,0.2-0.5,0.5-0.5h9.9"/>
	<g>
		<line fill="#FFFFFF" x1="15.9" y1="25.2" x2="15.9" y2="13.3"/>
		<path fill="#261D38" d="M15.9,25.2c0,0-0.1-0.7-0.2-1.9c-0.1-1.1-0.2-2.6-0.2-4.1c0-1.5,0.1-3,0.2-4.1c0.1-1.1,0.2-1.9,0.2-1.9
			s0.1,0.7,0.2,1.9c0.1,1.1,0.2,2.6,0.2,4.1c0,1.5-0.1,3-0.2,4.1C16,24.5,15.9,25.2,15.9,25.2z"/>
	</g>
	
		<line fill="none" stroke="#261D38" stroke-width="0.727" stroke-linecap="round" stroke-linejoin="round" stroke-miterlimit="10" x1="13.8" y1="11.6" x2="15.8" y2="9.7"/>
	
		<line fill="none" stroke="#261D38" stroke-width="0.2077" stroke-linecap="round" stroke-linejoin="round" stroke-miterlimit="10" x1="14.9" y1="11.6" x2="17" y2="9.7"/>
	
		<line fill="none" stroke="#261D38" stroke-width="0.6232" stroke-linecap="round" stroke-linejoin="round" stroke-miterlimit="10" x1="16" y1="11.6" x2="18" y2="9.7"/>
	<g>
		<g>
			
				<circle fill="#FFFFFF" stroke="#261D38" stroke-width="0.727" stroke-linecap="round" stroke-linejoin="round" stroke-miterlimit="10" cx="16" cy="4.1" r="2.2"/>
			<path fill="#FFFFFF" stroke="#261D38" stroke-width="0.727" stroke-linecap="round" stroke-miterlimit="10" d="M19,11.6
				c0,0,0.2,2.5,0.1,5.8c-0.1,1.2-0.6,1.9-0.6,1.9s0.5,0.8,0.4,1.3c0,0.3-0.1,0.7-0.1,1c-0.4,3.2-1.2,6.3-2.8,7.9
				c-0.8-0.8-1.4-2-1.8-3.3c-0.1-0.3,0.1-1,0.1-1s-0.5-0.3-0.5-0.6c-0.7-3.2-0.9-7-0.9-9.6c0-0.3,0.7-1,0.7-1s-0.7-0.3-0.7-0.6
				c0-1,0.1-1.7,0.1-1.7H19z"/>
			
				<path fill="#FFFFFF" stroke="#261D38" stroke-width="0.727" stroke-linecap="round" stroke-linejoin="round" stroke-miterlimit="10" d="
				M12.9,4.6c0-0.3,0.2-0.5,0.5-0.5h5.2c0.3,0,0.5,0.2,0.5,0.5v0.9C19,5.8,18.8,6,18.5,6h-5.2c-0.3,0-0.5-0.2-0.5-0.5V4.6z"/>
			
				<path fill="#FFFFFF" stroke="#261D38" stroke-width="0.727" stroke-linecap="round" stroke-linejoin="round" stroke-miterlimit="10" d="
				M12.9,6.4c0-0.3,0.2-0.5,0.5-0.5h5.2C18.8,6,19,6.2,19,6.4v0.9c0,0.3-0.2,0.5-0.5,0.5h-5.2c-0.3,0-0.5-0.2-0.5-0.5V6.4z"/>
			
				<path fill="#FFFFFF" stroke="#261D38" stroke-width="0.727" stroke-linecap="round" stroke-linejoin="round" stroke-miterlimit="10" d="
				M12.9,8.3c0-0.3,0.2-0.5,0.5-0.5h5.2c0.3,0,0.5,0.2,0.5,0.5v0.9c0,0.3-0.2,0.5-0.5,0.5h-5.2c-0.3,0-0.5-0.2-0.5-0.5V8.3z"/>
			
				<path fill="#FFFFFF" stroke="#261D38" stroke-width="0.727" stroke-linecap="round" stroke-linejoin="round" stroke-miterlimit="10" d="
				M10.5,10.2c0-0.3,0.2-0.5,0.5-0.5h9.9c0.3,0,0.5,0.2,0.5,0.5v0.9c0,0.3-0.2,0.5-0.5,0.5H11c-0.3,0-0.5-0.2-0.5-0.5V10.2z"/>
			<g>
				<line fill="#FFFFFF" x1="15.9" y1="25.2" x2="15.9" y2="13.3"/>
				<path fill="#261D38" d="M15.9,25.2c0,0-0.1-0.7-0.2-1.9c-0.1-1.1-0.2-2.6-0.2-4.1c0-1.5,0.1-3,0.2-4.1c0.1-1.1,0.2-1.9,0.2-1.9
					s0.1,0.7,0.2,1.9c0.1,1.1,0.2,2.6,0.2,4.1c0,1.5-0.1,3-0.2,4.1C16,24.5,15.9,25.2,15.9,25.2z"/>
			</g>
		</g>
	</g>
	
		<line fill="none" stroke="#261D38" stroke-width="0.727" stroke-linecap="round" stroke-linejoin="round" stroke-miterlimit="10" x1="13.8" y1="11.6" x2="15.8" y2="9.7"/>
	
		<line fill="none" stroke="#261D38" stroke-width="0.2077" stroke-linecap="round" stroke-linejoin="round" stroke-miterlimit="10" x1="14.9" y1="11.6" x2="17" y2="9.7"/>
	
		<line fill="none" stroke="#261D38" stroke-width="0.6232" stroke-linecap="round" stroke-linejoin="round" stroke-miterlimit="10" x1="16" y1="11.6" x2="18" y2="9.7"/>
</g>
</svg>
