<?xml version="1.0" encoding="utf-8"?>
<!-- Generator: Adobe Illustrator 18.0.0, SVG Export Plug-In . SVG Version: 6.00 Build 0)  -->
<!DOCTYPE svg PUBLIC "-//W3C//DTD SVG 1.1//EN" "http://www.w3.org/Graphics/SVG/1.1/DTD/svg11.dtd">
<svg version="1.1" id="Layer_1" xmlns="http://www.w3.org/2000/svg" xmlns:xlink="http://www.w3.org/1999/xlink" x="0px" y="0px"
	 viewBox="0 0 315 287" enable-background="new 0 0 315 287" xml:space="preserve">
<g>
	<path fill="#FFFFFF" d="M44.5,119.2c-0.1,0-0.3,0-0.4,0c-0.9-0.2-1.5-1.1-1.3-2.1c5.9-26.2,20.7-50,41.7-67
		c21.3-17.3,48.2-26.8,75.6-26.8c24.7,0,48.4,7.4,68.6,21.5c19.7,13.7,34.8,32.8,43.5,55.1c0.4,0.9-0.1,1.9-1,2.3
		c-0.9,0.4-1.9-0.1-2.3-1c-8.4-21.7-23-40.2-42.2-53.5c-19.6-13.6-42.6-20.9-66.6-20.9c-26.7,0-52.8,9.2-73.4,26
		c-20.4,16.5-34.8,39.6-40.5,65.1C46,118.6,45.3,119.2,44.5,119.2z"/>
	<path fill="#FFFFFF" d="M153.7,263.8c-44.1,0-84.6-24.1-105.7-62.9c-0.5-0.8-0.1-1.9,0.7-2.4c0.8-0.5,1.9-0.1,2.4,0.7
		c20.5,37.7,59.8,61.1,102.7,61.1c49.6,0,93.9-31.4,110.2-78.2c0.3-0.9,1.3-1.4,2.2-1.1s1.4,1.3,1.1,2.2
		C250.3,231.4,204.7,263.8,153.7,263.8z"/>
	<g>
		<g>
			<g>
				<path fill="#FFFFFF" d="M101.4,121.1c0.2,0.1,0.5,0.1,0.8,0c0.6,0,1.2-0.4,1.4-1c0.5-1.2,1.4-2.4,2.4-3.3
					c0.8-0.7,0.8-1.8,0.1-2.5c-0.7-0.7-1.8-0.8-2.4-0.1c-1.4,1.2-2.6,2.9-3.3,4.6C100.1,119.7,100.5,120.7,101.4,121.1z"/>
			</g>
			<g>
				<path fill="#FFFFFF" d="M194.9,176.2C194.9,176.2,194.9,176.2,194.9,176.2l-1.1,0C194.1,176.2,194.5,176.2,194.9,176.2z"/>
			</g>
			<g>
				<path fill="#FFFFFF" d="M193.6,176.2l-0.5,0C193.3,176.2,193.4,176.2,193.6,176.2L193.6,176.2z"/>
				<path fill="#FFFFFF" d="M198.9,176.1c0.1,0,0.2,0,0.3,0L198.9,176.1L198.9,176.1z"/>
				<path fill="#FFFFFF" d="M194.9,176.2C194.9,176.2,194.9,176.2,194.9,176.2l-1.1,0C194.1,176.2,194.5,176.2,194.9,176.2z"/>
				<path fill="#FFFFFF" d="M193.1,176.2c-0.1,0-0.2,0-0.3,0l0,0L193.1,176.2z"/>
			</g>
		</g>
		<path fill="#FFFFFF" d="M100.4,162.9"/>
		<path fill="#FFFFFF" d="M292.2,131.7c-1.2-0.5-3.1-0.8-5.5,0.7c-1.8,1.1-3.8,3-5.8,5.7c-4,5.3-10.6,14.3-21.8,15.2
			c-3.1,0.2-5.4-0.6-6.7-2.4c-1-1.4-1.4-3.5-1.2-6.1c0.2-1.5,0.5-3.1,1-4.8c1.3,0.4,3.3,0.8,5.7,0.6c2.4-0.3,5-1,7.4-2.3
			c2.9-1.5,5.8-3.9,8.5-7c4.7-5.5,7.1-10.8,6.6-14.8c-0.2-1.9-1.1-3.5-2.5-4.5c-1.9-1.4-4.3-1.7-6.8-1c-6.7,1.7-14.3,10.3-20.1,22.3
			c-1.3,2.6-2.2,5.1-2.8,7.4c-0.1,0.1-0.1,0.1-0.2,0.2c-0.5,0.9-1.1,1.6-1.6,2.5c-3.5,5.2-7.3,11.3-13.3,11.8
			c-2.2,0.2-4-0.6-5.8-1.8c0.1,0,0.2-0.1,0.3-0.2c3.4-3.2,6.7-7.5,9.2-12.3c4.7-8.7,5.8-17,2.8-21.6c-1.2-1.8-3.5-4-8.2-3.6
			c-4.3,0.3-9.3,3.5-14.8,9.5c0.8-2.2,1.7-4.4,2.5-6.6c0.4-0.8,0-1.9-0.9-2.3c-0.9-0.3-2,0.1-2.4,1c-2.3,5.6-4.5,11.5-6.4,16.9
			c-0.2,0.5-0.3,0.8-0.5,1.5c-1.1,2.9-2,5.7-2.9,8.3c-0.1,0.1-0.1,0.1-0.2,0.2c-0.3,0.4-0.5,0.9-0.9,1.3c-2,2.8-4.3,6.1-6.5,8.6
			c-3.1,3.5-4.7,4.1-5.4,4.2c-1.6,0.1-2-0.5-2.1-0.8c-1.4-1.9-0.6-8.5,5.5-21.1c4.6-9.4,8-15.6,8-15.7c0.5-0.9,0.2-1.9-0.7-2.4
			c-0.8-0.4-1.9-0.2-2.4,0.7c0,0-1.1,2-2.8,5.4c-0.3-1.3-0.9-2.4-1.7-3.2c-1-1.2-2.9-2.6-6.5-2.3c-3.1,0.2-6.8,2.1-10.6,5.3
			c-4.3,3.6-8.2,8.5-11.3,14.3c-1.6,3-2.8,6-3.6,8.9c0,0,0,0,0,0c-2.2,3.1-5.5,6.6-8.5,9.3c-3.7,3.1-6.9,5-9.2,5.2
			c-1.7,0.1-2.2-0.5-2.3-0.7c-0.9-1.1-2.1-5.5,4.4-21.1c1.6-3.9,3.8-8.7,6.2-13.4c0.1-0.2-3.1-0.7-3-0.9l3.6-0.2
			c4-0.4,8.4-0.7,11.3-0.8c0.9,0,1.8-0.7,1.8-1.8c-0.1-1-0.8-1.8-1.9-1.8c-2.4,0-6,0.3-9.4,0.5c3.8-7.5,7.1-13.7,7.1-13.8
			c0.4-0.9,0.2-1.9-0.8-2.5c-0.8-0.4-1.9-0.1-2.4,0.8c0,0.1-4,7.5-8.1,15.9c-4.6,0.5-8.3,0.9-8.6,1c-1,0.1-1.7,0.9-1.6,1.9
			c0.2,1,1,1.6,1.9,1.6c0,0,0,0,0.1,0c0,0,2.7-0.3,6.3-0.8c-2.3,4.6-4.4,9.2-5.9,12.9c-1.6,3.8-2.8,7.2-3.7,10.2
			c-0.1,0.1-0.3,0.2-0.3,0.3c-0.4,0.4-0.6,1-1,1.4c-2,2.9-4.3,6.1-6.5,8.6c-3,3.4-4.6,4-5.3,4.1c-0.7,0.1-1.2-0.1-1.8-0.6
			c-1-0.9-2.3-3.3-2.9-9.2c-0.3-2.2-0.4-4.6-0.4-7.1c0.5-0.7,1-1.6,1.4-2.3c2.8-4.4,5.5-8.6,7.8-11.6c3.2-4.3,4.6-4.7,5-4.7
			c0.1,0,0.4,0.1,0.5,0.2c0.4,0.6,0.3,2.6-0.1,4.1c-0.3,0.9,0.2,1.9,1.2,2.2c0.9,0.3,1.9-0.2,2.1-1.2c0.2-0.8,1.4-5-0.5-7.4
			c-0.6-0.8-1.6-1.6-3.6-1.4c-3.8,0.3-7.8,5.9-14.1,15.8c0-0.3,0-0.7,0-1c0-8.5-0.1-12.4-1.8-13.9c-0.5-0.5-1.2-0.7-1.9-0.7
			c-3.4,0.3-5.7,4.8-9,11.6c-2.3,4.6-5.3,10.4-9.1,15.9c-0.2,0.1-1,1.2-1.2,1.6c-2.1,2.8-4.4,6.1-6.6,8.6c-3.1,3.5-4.7,4.1-5.4,4.2
			c-1.5,0.1-2-0.5-2.1-0.8c-1.4-1.9-0.5-8.5,5.5-21.1c4.7-9.4,8-15.6,8.1-15.7c0.4-0.8,0.2-1.9-0.7-2.4c-0.9-0.4-1.9-0.2-2.5,0.7
			c0,0.1-3.5,6.3-8.1,15.8c-1.9,4-3.4,7.5-4.4,10.6c0,0-0.1,0.1-0.1,0.1c-0.3,0.4-0.6,0.9-0.9,1.3c-2,2.8-4.3,6.1-6.6,8.6
			c-3,3.5-4.7,4.1-5.3,4.2c-1.6,0.1-2.1-0.5-2.2-0.7c-1.4-2-0.6-8.6,5.6-21.1c3.2-6.4,4-11.3,2.5-14.4c-0.7-1.7-2.1-2.8-4-3.2
			c-4.9-1.2-10.4,1.6-16.1,8.2c-0.2,0.2-0.4,0.4-0.6,0.7c0,0-2.8,3.7-2.7,3.4c0.5-1.8,2.7-5.2,2.7-5.3c-0.1-0.8-0.3-1.5-0.7-2.1
			c-0.7-1.7-2.1-2.8-4-3.2c-4.9-1.2-10.4,1.6-16.1,8.2c-0.3,0.3-0.7,0.8-0.9,1.2c0.8-2.2,1.7-4.4,2.5-6.6c0.3-0.8,0-1.9-1-2.3
			c-0.9-0.3-1.9,0-2.3,1c-7.9,19.6-14.7,41.1-14.8,41.3c-0.2,0.9,0.2,1.9,1.2,2.1c0.2,0.1,0.4,0.2,0.6,0.2c0.7-0.1,1.4-0.5,1.6-1.2
			c0-0.1,1.9-6.3,5-15.2c0,0,0-0.1,0.1-0.1c2.3-6.4,6.5-13.3,10.6-18c4.6-5.5,9.1-8,12.5-7.1c0.8,0.2,1.4,0.6,1.7,1.3
			c0.9,2.1,0,6.2-2.6,11.3c-1.4,2.9-2.6,5.6-3.6,8.1c-0.3,0.5-0.4,1-0.6,1.6c0,0-0.1,0-0.1,0.1c-2.6,6.8-3.7,12.1-3.3,16.1
			c0.2,0.9,0.9,1.7,1.9,1.6c1-0.1,1.8-0.9,1.6-1.9c-0.4-3.6,0.9-9.1,3.8-16.1c2.5-5.9,6.2-12.1,10-16.5c4.6-5.5,9.1-8,12.5-7.1
			c0.8,0.2,1.4,0.6,1.6,1.3c1,2.1,0.1,6.2-2.5,11.3c-2.9,5.8-4.7,10.8-5.8,14.8c-1.2,4.5-1,7.8,0.5,9.9c0.8,1.2,2.3,2.5,5.3,2.2
			c3.2-0.2,6.7-3.8,10.7-9c-0.1,2.3,0.2,4.1,1.1,5.5c0.8,1.2,2.4,2.5,5.3,2.2c2.4-0.2,4.9-2.1,7.6-5.2l0.2-0.2
			c2.1-2.4,4.3-5.5,6.7-8.9c1.3-1.6,8.2-13.1,10.7-17.9c1.5-3,2.7-5.6,3.9-7.4c0.7-1,1.2-1.6,1.6-1.9c0.1,0.6,0.3,1.5,0.3,3
			c0.2,2,0.2,4.8,0.2,7.7c0,2,0,4.3,0.1,6.4c-2.9,4.5-5.8,9-8.8,12.5c-3.8,4.7-5.5,7.2-7.9,7.4c-1.1,0.1-1.7-0.6-1.7-0.6
			c-0.7-0.7-1.8-0.7-2.5,0c-0.7,0.7-0.7,1.8,0,2.4c1.1,1.2,2.6,1.8,4.3,1.7c0.1,0,0.3,0,0.4,0c4.3-0.6,9.3-6.8,14.7-14.7
			c0.1-0.1,0.2-0.3,0.3-0.4c0.1-0.2,1.1-6.9,1.3-7.2c0.2-0.3,0.2,5,0.2,5c0.5,6,1.5,11.3,4.2,13.9c1.3,1.1,2.8,1.6,4.5,1.5
			c3.4-0.3,7.1-4.2,11.3-9.8c-0.2,2.7,0.2,4.7,1.3,6.2c0.8,1.2,2.4,2.5,5.4,2.2c3.1-0.2,6.9-2.3,11.2-6c1.9-1.6,3.7-3.4,5.4-5.2
			c0.1,2.4,0.6,4.5,1.7,6.1c1.2,1.8,3.6,4,8.3,3.6c4.2-0.3,8.6-3.4,12.8-9.1c0,2,0.4,3.6,1.2,4.9c0.8,1.2,2.3,2.5,5.3,2.2
			c2.8-0.2,5.8-2.9,9.1-7c-0.7,2.2-1.2,3.5-1.2,3.7c-1.1,3-3.5,10.2-5.8,16.1l3.9-0.3c2.2-5.7,4.2-11.8,5.3-14.6
			c0.1-0.2,3.4-10.8,8.1-23.8c1-1.4,3.3-4.6,6.2-7.9c5-5.4,9.4-8.5,12.8-8.8c2.3-0.2,4,0.5,5,2c1,1.5,1.3,4.2,0.9,7.1
			c-0.5,3.3-1.8,7-3.8,10.8c-2.4,4.4-5.8,9.1-9.5,12.2c-2.7-1.7-5.6-3.4-9.7-3.1c-3.5,0.3-6.4,3-6.3,6c0.1,1.4,0.8,2.7,2.1,3.6
			c1.2,0.7,2.9,1.2,5.1,1.2c2.8,0.1,5.9-1.1,9-3.3c2.6,1.6,5.4,3.2,9,3c6.6-0.5,10.8-5.7,14.2-10.7c0.2,1.9,0.8,3.6,1.8,5
			c1.4,2,4.2,4.3,9.8,3.9c5.5-0.4,10.7-2.6,15.5-6.6c4-3.3,6.8-7.2,9-10c3.4-4.7,5.9-5.8,7-5.3c1.3,0.5,2.2,3.4,1.4,7.8
			c-0.5,3.1-2.5,11.1-10.6,18.7c-7.6,6.9-18,11.1-30.3,12.1c-15.1,1.2-51.9,2.5-51.9,2.5s-0.3,0-0.3,0c0,0-5.6,0.2-5.8,0.2l-0.3,0
			l0,0c-4.3,0.1-8.3,0.2-11.6,0.2c-11.6,0-40.8,2-71.9,5c-37,3.5-72.2,7.4-88.8,10.7c-1,0.2-1.6,1-1.5,2c0.2,1,1.1,1.6,2.1,1.4
			c16.2-3.2,50.7-7,87.4-10.4c31.4-3,61-5,72.6-5.1c3.4,0,7.6-0.1,12.1-0.2c-2.3,6.3-4.4,11.8-4.4,11.9c-0.3,0.9,0.2,1.9,1.1,2.2
			c0.2,0.1,0.4,0.2,0.6,0.2c0.7,0,1.4-0.5,1.7-1.2c0-0.1,2.5-6.6,4.9-13.1c16.9-0.5,38.4-1.4,54.2-2.6c7-0.5,13.3-2,19-4.5
			c5.1-2.1,9.5-5,13.3-8.5c3.4-3.1,6.1-6.5,8.2-10.5c1.8-3.3,3-6.8,3.6-10.2C296.6,137.5,295.2,133,292.2,131.7z M254.2,134.9
			c2.7-5.7,5.9-10.6,9.1-14.3c3.1-3.4,6.1-5.5,8.6-6.2c1.5-0.4,2.8-0.2,3.8,0.5c0.6,0.4,0.9,1,1.1,1.9c0.3,3-1.8,7.5-5.8,12.1
			c-4.2,4.9-8.7,7.7-13.4,8.1c-1.8,0.1-3.4-0.1-4.3-0.4C253.7,136,254,135.5,254.2,134.9z M184.6,151.7c-3.8,5.3-7.6,8.2-10.8,8.4
			c-2.4,0.2-4.1-0.5-5-2c-1-1.5-1.3-4.1-1-7.1c0.5-3.3,1.8-7.1,3.8-10.9c6.8-12.4,15.3-17.5,19.1-17.8c1.6-0.1,2.8,0.3,3.5,1.1
			c1.7,1.9,1.2,6,0.9,7.4c0,0.1,0,0.1,0,0.2c-0.6,1.2-1.2,2.4-1.8,3.7c-1.5,3.1-2.7,5.8-3.6,8.3c0,0.1-0.1,0.1-0.1,0.2
			C189.6,143.4,187.7,147.5,184.6,151.7z M219.9,154.4c-1.5,0.8-3,1.2-4.4,1.1c-2.4,0-3.6-0.7-3.7-1.3c0-0.8,1.1-2.2,3.1-2.4
			c2.4-0.2,4.4,0.7,6.3,1.8c0,0,2.7,1.7,2.6,1.7C223.6,155.5,220,154.3,219.9,154.4z M194.9,176.2
			C194.9,176.2,194.9,176.2,194.9,176.2c-0.4,0-0.7,0-1.1,0L194.9,176.2z"/>
	</g>
</g>
</svg>
