<?xml version="1.0" encoding="utf-8"?>
<!-- Generator: Adobe Illustrator 18.0.0, SVG Export Plug-In . SVG Version: 6.00 Build 0)  -->
<!DOCTYPE svg PUBLIC "-//W3C//DTD SVG 1.1//EN" "http://www.w3.org/Graphics/SVG/1.1/DTD/svg11.dtd">
<svg version="1.1" id="Layer_1" xmlns="http://www.w3.org/2000/svg" xmlns:xlink="http://www.w3.org/1999/xlink" x="0px" y="0px"
	 viewBox="0 0 114.9 132.2" enable-background="new 0 0 114.9 132.2" xml:space="preserve">
<g>
	<path fill="#261D38" stroke="#FFFFFF" stroke-width="4.5846" stroke-miterlimit="10" d="M73.9,37.8h-6.2c0.7,0,1.2-0.6,1.2-1.2
		v-2.5c0-0.7-0.6-1.2-1.2-1.2c0.7,0,1.2-0.6,1.2-1.2v-2.5c0-0.7-0.6-1.2-1.2-1.2c0.7,0,1.2-0.6,1.2-1.2v-2.5c0-0.7-0.6-1.2-1.2-1.2
		h-0.8c0-3.3-2.6-5.9-5.9-5.9c-3.2,0-5.9,2.6-5.9,5.9h-1c-0.7,0-1.2,0.6-1.2,1.2v2.5c0,0.7,0.6,1.2,1.2,1.2c-0.7,0-1.2,0.6-1.2,1.2
		v2.5c0,0.7,0.6,1.2,1.2,1.2c-0.7,0-1.2,0.6-1.2,1.2v2.5c0,0.7,0.6,1.2,1.2,1.2h-6.2c-0.7,0-1.2,0.6-1.2,1.2v2.5
		c0,0.7,0.6,1.2,1.2,1.2h5c0,0-0.1,1.7-0.2,4.4c0,0.6,1.8,1.5,1.8,1.5s-1.8,1.9-1.8,2.7c0,7,0.4,16.9,2.3,25.3
		c0.1,0.6,1.4,1.5,1.4,1.5s-0.4,1.9-0.2,2.7c1.2,3.6,2.8,6.7,4.8,8.8c4.2-4.2,6.3-12.3,7.3-20.7c0.1-0.9,0.2-1.8,0.3-2.7
		c0.1-1.1-1.1-3.3-1.1-3.3s1.5-1.9,1.7-5c0.4-8.5-0.1-15.2-0.1-15.2h5c0.7,0,1.2-0.6,1.2-1.2v-2.5C75.1,38.4,74.5,37.8,73.9,37.8z"
		/>
	
		<circle fill="#FFFFFF" stroke="#261D38" stroke-width="1.9145" stroke-linecap="round" stroke-linejoin="round" stroke-miterlimit="10" cx="61" cy="23" r="5.9"/>
	<path fill="#FFFFFF" stroke="#261D38" stroke-width="1.9145" stroke-linecap="round" stroke-miterlimit="10" d="M68.9,42.8
		c0,0,0.6,6.7,0.1,15.2c-0.1,3.1-1.7,5-1.7,5s1.3,2.2,1.1,3.3c-0.1,0.9-0.2,1.8-0.3,2.7c-1.1,8.4-3.2,16.6-7.3,20.7
		c-2.1-2.1-3.7-5.2-4.8-8.8c-0.2-0.8,0.2-2.7,0.2-2.7s-1.2-0.9-1.4-1.5c-1.9-8.4-2.3-18.4-2.3-25.3c0-0.8,1.8-2.7,1.8-2.7
		s-1.8-0.9-1.8-1.5c0.1-2.7,0.2-4.4,0.2-4.4H68.9z"/>
	
		<path fill="#FFFFFF" stroke="#261D38" stroke-width="1.9145" stroke-linecap="round" stroke-linejoin="round" stroke-miterlimit="10" d="
		M52.8,24.2c0-0.7,0.6-1.2,1.2-1.2h13.6c0.7,0,1.2,0.6,1.2,1.2v2.5c0,0.7-0.6,1.2-1.2,1.2H54c-0.7,0-1.2-0.6-1.2-1.2V24.2z"/>
	
		<path fill="#FFFFFF" stroke="#261D38" stroke-width="1.9145" stroke-linecap="round" stroke-linejoin="round" stroke-miterlimit="10" d="
		M52.8,29.2c0-0.7,0.6-1.2,1.2-1.2h13.6c0.7,0,1.2,0.6,1.2,1.2v2.5c0,0.7-0.6,1.2-1.2,1.2H54c-0.7,0-1.2-0.6-1.2-1.2V29.2z"/>
	
		<path fill="#FFFFFF" stroke="#261D38" stroke-width="1.9145" stroke-linecap="round" stroke-linejoin="round" stroke-miterlimit="10" d="
		M52.8,34.1c0-0.7,0.6-1.2,1.2-1.2h13.6c0.7,0,1.2,0.6,1.2,1.2v2.5c0,0.7-0.6,1.2-1.2,1.2H54c-0.7,0-1.2-0.6-1.2-1.2V34.1z"/>
	
		<path fill="#FFFFFF" stroke="#261D38" stroke-width="1.9145" stroke-linecap="round" stroke-linejoin="round" stroke-miterlimit="10" d="
		M73.9,42.8h-26c-0.7,0-1.2-0.6-1.2-1.2"/>
	
		<path fill="#FFFFFF" stroke="#261D38" stroke-width="1.9145" stroke-linecap="round" stroke-linejoin="round" stroke-miterlimit="10" d="
		M46.6,39.1c0-0.7,0.6-1.2,1.2-1.2h26"/>
	<g>
		<line fill="#FFFFFF" x1="60.9" y1="78.6" x2="60.9" y2="47.2"/>
		<path fill="#261D38" d="M60.9,78.6c0,0-0.3-2-0.5-4.9c-0.1-1.5-0.2-3.2-0.3-5c0-0.9-0.1-1.9-0.1-2.8c0-1,0-1.9,0-2.9
			c0-1,0-2,0-2.9c0-1,0.1-1.9,0.1-2.8c0.1-1.8,0.2-3.6,0.3-5c0.2-2.9,0.5-4.9,0.5-4.9s0.3,2,0.5,4.9c0.1,1.5,0.2,3.2,0.3,5
			c0,0.9,0.1,1.9,0.1,2.8c0,1,0,1.9,0,2.9c0,1,0,2,0,2.9c0,1-0.1,1.9-0.1,2.8c-0.1,1.8-0.2,3.6-0.3,5C61.2,76.6,60.9,78.6,60.9,78.6
			z"/>
	</g>
	<circle fill="#261D38" cx="67.3" cy="44.6" r="1.1"/>
	<circle fill="#261D38" cx="66.9" cy="47.4" r="0.6"/>
	<circle fill="#261D38" cx="60.9" cy="45.8" r="0.6"/>
	<circle fill="#261D38" cx="65.1" cy="45.2" r="0.6"/>
	<circle fill="#261D38" cx="66.3" cy="45.6" r="0.6"/>
	<circle fill="#261D38" cx="64.1" cy="47.7" r="0.6"/>
	<circle fill="#261D38" cx="63.2" cy="44.7" r="0.6"/>
	<circle fill="#261D38" cx="65.7" cy="51.1" r="0.6"/>
	<circle fill="#261D38" cx="66.7" cy="43.8" r="0.6"/>
	<circle fill="#261D38" cx="68.1" cy="46.2" r="0.6"/>
	<circle fill="#261D38" cx="65.6" cy="48.7" r="0.3"/>
	<circle fill="#261D38" cx="67.8" cy="36.1" r="0.3"/>
	<circle fill="#261D38" cx="67.3" cy="35.2" r="0.3"/>
	<circle fill="#261D38" cx="66.9" cy="35.9" r="0.3"/>
	<circle fill="#261D38" cx="64.7" cy="34.7" r="0.3"/>
	<circle fill="#261D38" cx="65.6" cy="35.9" r="0.3"/>
	<circle fill="#261D38" cx="66.6" cy="36.9" r="0.3"/>
	<circle fill="#261D38" cx="67.9" cy="34" r="0.3"/>
	<circle fill="#261D38" cx="67.2" cy="34.3" r="0.3"/>
	<circle fill="#261D38" cx="68.1" cy="36.5" r="0.3"/>
	<circle fill="#261D38" cx="67.6" cy="35" r="0.3"/>
	<circle fill="#261D38" cx="66.5" cy="35" r="0.3"/>
	<circle fill="#261D38" cx="61.7" cy="44.6" r="0.3"/>
	<circle fill="#261D38" cx="62.6" cy="45.8" r="0.3"/>
	<circle fill="#261D38" cx="67.2" cy="49.3" r="0.3"/>
	<circle fill="#261D38" cx="65.6" cy="46.8" r="0.3"/>
	<circle fill="#261D38" cx="63.8" cy="49.7" r="0.3"/>
	<circle fill="#261D38" cx="64" cy="46.1" r="0.3"/>
	<circle fill="#261D38" cx="65" cy="44" r="0.3"/>
	<circle fill="#261D38" cx="62.3" cy="47.1" r="0.3"/>
	<circle fill="#261D38" cx="53.9" cy="31.2" r="0.3"/>
	<circle fill="#261D38" cx="54.4" cy="30.3" r="0.3"/>
	<circle fill="#261D38" cx="54.8" cy="31" r="0.3"/>
	<circle fill="#261D38" cx="56.5" cy="29.8" r="0.3"/>
	<circle fill="#261D38" cx="56.2" cy="31" r="0.3"/>
	<circle fill="#261D38" cx="55.1" cy="32" r="0.3"/>
	<circle fill="#261D38" cx="53.8" cy="29.1" r="0.3"/>
	<circle fill="#261D38" cx="54.5" cy="29.4" r="0.3"/>
	<circle fill="#261D38" cx="53.8" cy="31.7" r="0.3"/>
	<circle fill="#261D38" cx="54" cy="30.1" r="0.4"/>
	<circle fill="#261D38" cx="55.2" cy="30.1" r="0.3"/>
	<circle fill="#261D38" cx="67.6" cy="26.4" r="0.3"/>
	<circle fill="#261D38" cx="67.1" cy="25.5" r="0.3"/>
	<circle fill="#261D38" cx="66.8" cy="26.2" r="0.3"/>
	<circle fill="#261D38" cx="64.5" cy="25" r="0.3"/>
	<circle fill="#261D38" cx="65.7" cy="21.8" r="0.3"/>
	<circle fill="#261D38" cx="64.5" cy="21.9" r="0.3"/>
	<circle fill="#261D38" cx="65.2" cy="21.1" r="0.3"/>
	<circle fill="#261D38" cx="64.5" cy="20.4" r="0.3"/>
	<circle fill="#261D38" cx="63.3" cy="21.1" r="0.3"/>
	<circle fill="#261D38" cx="65.2" cy="21.8" r="0.3"/>
	<circle fill="#261D38" cx="65.7" cy="21.1" r="0.3"/>
	<circle fill="#261D38" cx="64.2" cy="19.2" r="0.3"/>
	<circle fill="#261D38" cx="64.2" cy="21.2" r="0.3"/>
	<circle fill="#261D38" cx="56.3" cy="21.8" r="0.3"/>
	<circle fill="#261D38" cx="57.5" cy="21.9" r="0.3"/>
	<circle fill="#261D38" cx="56.8" cy="21.1" r="0.3"/>
	<circle fill="#261D38" cx="57.4" cy="20.4" r="0.3"/>
	<circle fill="#261D38" cx="58.6" cy="21.1" r="0.3"/>
	<circle fill="#261D38" cx="56.8" cy="21.8" r="0.3"/>
	<circle fill="#261D38" cx="56.3" cy="21.1" r="0.3"/>
	<circle fill="#261D38" cx="57.7" cy="19.2" r="0.3"/>
	<circle fill="#261D38" cx="57.8" cy="21.2" r="0.3"/>
	<circle fill="#261D38" cx="65.4" cy="26.2" r="0.3"/>
	<circle fill="#261D38" cx="66.5" cy="27.1" r="0.3"/>
	<circle fill="#261D38" cx="67.8" cy="24.3" r="0.3"/>
	<circle fill="#261D38" cx="67.1" cy="24.5" r="0.3"/>
	<circle fill="#261D38" cx="67.9" cy="26.7" r="0.3"/>
	<circle fill="#261D38" cx="67.5" cy="25.3" r="0.3"/>
	<circle fill="#261D38" cx="66.3" cy="25.3" r="0.3"/>
	
		<line fill="none" stroke="#261D38" stroke-width="1.9145" stroke-linecap="round" stroke-linejoin="round" stroke-miterlimit="10" x1="55.2" y1="42.8" x2="60.7" y2="37.8"/>
	
		<line fill="none" stroke="#261D38" stroke-width="0.5471" stroke-linecap="round" stroke-linejoin="round" stroke-miterlimit="10" x1="58.3" y1="42.8" x2="63.7" y2="37.8"/>
	
		<line fill="none" stroke="#261D38" stroke-width="1.6412" stroke-linecap="round" stroke-linejoin="round" stroke-miterlimit="10" x1="61" y1="42.8" x2="66.4" y2="37.8"/>
	<circle fill="#261D38" cx="60.9" cy="88" r="0.3"/>
	<circle fill="#261D38" cx="60.7" cy="86.7" r="0.3"/>
	<circle fill="#261D38" cx="60.2" cy="87.4" r="0.3"/>
	<circle fill="#261D38" cx="59.9" cy="85.6" r="0.3"/>
	<circle fill="#261D38" cx="59.8" cy="86.4" r="0.3"/>
	<circle fill="#261D38" cx="61.2" cy="85" r="0.3"/>
	<circle fill="#261D38" cx="61.5" cy="83.7" r="0.3"/>
	<circle fill="#261D38" cx="60.9" cy="82.2" r="0.3"/>
	<circle fill="#261D38" cx="58.9" cy="83.4" r="0.3"/>
	<circle fill="#261D38" cx="60.9" cy="85.8" r="0.3"/>
	<circle fill="#261D38" cx="59.6" cy="84.7" r="0.3"/>
	<circle fill="#261D38" cx="58.6" cy="85" r="0.3"/>
	<circle fill="#261D38" cx="61.5" cy="87.1" r="0.3"/>
	<circle fill="#261D38" cx="60.2" cy="83.7" r="0.3"/>
	<circle fill="#261D38" cx="60.6" cy="87.7" r="0.3"/>
	<circle fill="#261D38" cx="61.5" cy="86.3" r="0.3"/>
	<g>
		<g>
			
				<circle fill="#FFFFFF" stroke="#261D38" stroke-width="1.9145" stroke-linecap="round" stroke-linejoin="round" stroke-miterlimit="10" cx="61" cy="23" r="5.9"/>
			<path fill="#FFFFFF" stroke="#261D38" stroke-width="1.9145" stroke-linecap="round" stroke-miterlimit="10" d="M68.9,42.8
				c0,0,0.6,6.7,0.1,15.2c-0.1,3.1-1.7,5-1.7,5s1.3,2.2,1.1,3.3c-0.1,0.9-0.2,1.8-0.3,2.7c-1.1,8.4-3.2,16.6-7.3,20.7
				c-2.1-2.1-3.7-5.2-4.8-8.8c-0.2-0.8,0.2-2.7,0.2-2.7s-1.2-0.9-1.4-1.5c-1.9-8.4-2.3-18.4-2.3-25.3c0-0.8,1.8-2.7,1.8-2.7
				s-1.8-0.9-1.8-1.5c0.1-2.7,0.2-4.4,0.2-4.4H68.9z"/>
			
				<path fill="#FFFFFF" stroke="#261D38" stroke-width="1.9145" stroke-linecap="round" stroke-linejoin="round" stroke-miterlimit="10" d="
				M52.8,24.2c0-0.7,0.6-1.2,1.2-1.2h13.6c0.7,0,1.2,0.6,1.2,1.2v2.5c0,0.7-0.6,1.2-1.2,1.2H54c-0.7,0-1.2-0.6-1.2-1.2V24.2z"/>
			
				<path fill="#FFFFFF" stroke="#261D38" stroke-width="1.9145" stroke-linecap="round" stroke-linejoin="round" stroke-miterlimit="10" d="
				M52.8,29.2c0-0.7,0.6-1.2,1.2-1.2h13.6c0.7,0,1.2,0.6,1.2,1.2v2.5c0,0.7-0.6,1.2-1.2,1.2H54c-0.7,0-1.2-0.6-1.2-1.2V29.2z"/>
			
				<path fill="#FFFFFF" stroke="#261D38" stroke-width="1.9145" stroke-linecap="round" stroke-linejoin="round" stroke-miterlimit="10" d="
				M52.8,34.1c0-0.7,0.6-1.2,1.2-1.2h13.6c0.7,0,1.2,0.6,1.2,1.2v2.5c0,0.7-0.6,1.2-1.2,1.2H54c-0.7,0-1.2-0.6-1.2-1.2V34.1z"/>
			
				<path fill="#FFFFFF" stroke="#261D38" stroke-width="1.9145" stroke-linecap="round" stroke-linejoin="round" stroke-miterlimit="10" d="
				M46.6,39.1c0-0.7,0.6-1.2,1.2-1.2h26c0.7,0,1.2,0.6,1.2,1.2v2.5c0,0.7-0.6,1.2-1.2,1.2h-26c-0.7,0-1.2-0.6-1.2-1.2V39.1z"/>
			<g>
				<line fill="#FFFFFF" x1="60.9" y1="78.6" x2="60.9" y2="47.2"/>
				<path fill="#261D38" d="M60.9,78.6c0,0-0.3-2-0.5-4.9c-0.1-1.5-0.2-3.2-0.3-5c0-0.9-0.1-1.9-0.1-2.8c0-1,0-1.9,0-2.9
					c0-1,0-2,0-2.9c0-1,0.1-1.9,0.1-2.8c0.1-1.8,0.2-3.6,0.3-5c0.2-2.9,0.5-4.9,0.5-4.9s0.3,2,0.5,4.9c0.1,1.5,0.2,3.2,0.3,5
					c0,0.9,0.1,1.9,0.1,2.8c0,1,0,1.9,0,2.9c0,1,0,2,0,2.9c0,1-0.1,1.9-0.1,2.8c-0.1,1.8-0.2,3.6-0.3,5
					C61.2,76.6,60.9,78.6,60.9,78.6z"/>
			</g>
			<g>
				<path fill="#FFFFFF" d="M63,118.1c0,1.1-0.9,2-2,2c-1.1,0-2-0.9-2-2c0-1.2,0.5-1.1,0.6-2.5c0.1-0.7-0.6-1.6-0.5-2.6
					c0.1-0.8,0.9-1.5,1-2.4c0.1-0.8-0.6-1.7-0.5-2.6c0.1-0.8,0.6-1.6,0.6-2.4c0.1-0.9-0.2-1.8-0.1-2.6c0.1-0.9,0.2-1.7,0.3-2.4
					c0.2-1.5,0.7-2.9,0.7-2.9s0.5,1.4,0.7,2.9c0.1,0.7,0.2,1.5,0.3,2.4c0.1,0.8-0.2,1.7-0.1,2.6c0.1,0.8,0.6,1.6,0.6,2.4
					c0.1,0.8-0.6,1.8-0.5,2.6c0.1,0.9,1,1.6,1,2.4c0.1,0.9-0.6,1.8-0.5,2.6C62.5,117,63,116.9,63,118.1z"/>
				<path fill="#FFFFFF" d="M78.5,117.1c0.4,1.2-0.2,2.4-1.3,2.8c-1.2,0.4-2.4-0.2-2.8-1.3c-0.5-1.3,0.1-1.4-0.3-2.8
					c-0.2-0.8-1.3-1.5-1.6-2.5c-0.2-0.9,0.4-2,0.2-2.9c-0.2-0.9-1.3-1.6-1.6-2.5c-0.2-0.9,0-1.9-0.2-2.8c-0.2-0.9-0.9-1.8-1.1-2.7
					c-0.3-1-0.5-1.9-0.7-2.6c-0.4-1.7-0.4-3.3-0.4-3.3s1.1,1.3,1.8,2.8c0.4,0.7,0.7,1.5,1.2,2.4c0.4,0.8,0.4,1.9,0.8,2.8
					c0.4,0.8,1.2,1.4,1.6,2.3c0.4,0.9,0,2.1,0.4,2.9c0.4,0.9,1.6,1.4,2,2.2c0.5,0.9,0.1,2.2,0.4,2.9C77.5,116.1,78,115.8,78.5,117.1
					z"/>
				<path fill="#FFFFFF" d="M88.3,105.5c0.6,0.8,0.5,1.9-0.2,2.5c-0.8,0.6-1.9,0.5-2.5-0.2c-0.7-0.8-0.3-1-1-2
					c-0.4-0.5-1.4-0.8-1.9-1.5c-0.4-0.6-0.2-1.6-0.7-2.3c-0.4-0.6-1.4-0.8-1.9-1.5c-0.4-0.6-0.5-1.4-1-2c-0.4-0.6-1.2-1.1-1.6-1.7
					c-0.5-0.7-0.9-1.3-1.2-1.8c-0.8-1.1-1.2-2.4-1.2-2.4s1.2,0.7,2.1,1.6c0.5,0.5,1,0.9,1.6,1.5c0.5,0.5,0.8,1.3,1.4,1.9
					c0.5,0.5,1.3,0.8,1.8,1.3c0.5,0.5,0.6,1.6,1.1,2.1c0.6,0.5,1.6,0.6,2.1,1.1c0.6,0.6,0.6,1.6,1.1,2.1
					C87.3,105,87.6,104.6,88.3,105.5z"/>
				<path fill="#FFFFFF" d="M100.9,96.2c1.1,0.6,1.4,2,0.8,3c-0.6,1.1-2,1.4-3,0.8c-1.2-0.7-0.8-1.1-2.1-2c-0.7-0.5-2-0.3-2.8-0.9
					c-0.7-0.5-1-1.8-1.8-2.4c-0.7-0.5-2-0.4-2.8-0.9c-0.8-0.6-1.2-1.4-2-2c-0.8-0.6-1.9-0.8-2.6-1.3c-0.8-0.6-1.5-1.1-2.2-1.6
					c-1.4-1-2.5-2.3-2.5-2.3s1.7,0.3,3.2,1c0.7,0.3,1.5,0.7,2.5,1.1c0.8,0.4,1.5,1.2,2.4,1.6c0.8,0.4,1.8,0.3,2.7,0.7
					c0.9,0.4,1.4,1.6,2.2,2c0.9,0.4,2.1,0,2.9,0.4c0.9,0.4,1.5,1.6,2.2,2C99.6,96,99.7,95.5,100.9,96.2z"/>
				<path fill="#FFFFFF" d="M101,80.9c1,0.2,1.6,1.1,1.4,2.1c-0.2,1-1.1,1.6-2.1,1.4c-1.1-0.2-0.9-0.6-2.1-0.9
					c-0.6-0.2-1.6,0.3-2.4,0.1c-0.7-0.2-1.2-1.1-2-1.3c-0.7-0.2-1.6,0.3-2.4,0.1c-0.7-0.2-1.3-0.7-2-1c-0.8-0.2-1.6-0.1-2.3-0.3
					c-0.8-0.2-1.5-0.4-2.1-0.6c-1.3-0.4-2.5-1-2.5-1s1.3-0.2,2.7-0.1c0.7,0,1.3,0.1,2.2,0.2c0.7,0.1,1.5,0.5,2.3,0.5
					c0.7,0.1,1.5-0.2,2.2-0.2c0.8,0.1,1.5,0.8,2.2,0.9c0.8,0.1,1.6-0.6,2.3-0.5c0.8,0.1,1.5,0.8,2.2,0.9
					C99.9,81.2,99.8,80.7,101,80.9z"/>
			</g>
			<g>
				<path fill="#FFFFFF" d="M43.6,117.1c-0.4,1.2,0.2,2.4,1.3,2.8c1.2,0.4,2.4-0.2,2.8-1.3c0.5-1.3-0.1-1.4,0.3-2.8
					c0.2-0.8,1.3-1.5,1.6-2.5c0.2-0.9-0.4-2-0.2-2.9c0.2-0.9,1.3-1.6,1.6-2.5c0.2-0.9,0-1.9,0.2-2.8c0.2-0.9,0.9-1.8,1.1-2.7
					c0.3-1,0.5-1.9,0.7-2.6c0.4-1.7,0.4-3.3,0.4-3.3s-1.1,1.3-1.8,2.8c-0.4,0.7-0.7,1.5-1.2,2.4c-0.4,0.8-0.4,1.9-0.8,2.8
					c-0.4,0.8-1.2,1.4-1.6,2.3c-0.4,0.9,0,2.1-0.4,2.9c-0.4,0.9-1.6,1.4-2,2.2c-0.5,0.9-0.1,2.2-0.4,2.9
					C44.6,116.1,44.1,115.8,43.6,117.1z"/>
				<path fill="#FFFFFF" d="M33.8,105.5c-0.6,0.8-0.5,1.9,0.2,2.5c0.8,0.6,1.9,0.5,2.5-0.2c0.7-0.8,0.3-1,1-2
					c0.4-0.5,1.4-0.8,1.9-1.5c0.4-0.6,0.2-1.6,0.7-2.3c0.4-0.6,1.4-0.8,1.9-1.5c0.4-0.6,0.5-1.4,1-2c0.4-0.6,1.2-1.1,1.6-1.7
					c0.5-0.7,0.9-1.3,1.2-1.8c0.8-1.1,1.2-2.4,1.2-2.4s-1.2,0.7-2.1,1.6c-0.5,0.5-1,0.9-1.6,1.5c-0.5,0.5-0.8,1.3-1.4,1.9
					c-0.5,0.5-1.3,0.8-1.8,1.3c-0.5,0.5-0.6,1.6-1.1,2.1c-0.6,0.5-1.6,0.6-2.1,1.1c-0.6,0.6-0.6,1.6-1.1,2.1
					C34.8,105,34.5,104.6,33.8,105.5z"/>
				<path fill="#FFFFFF" d="M21.2,96.2c-1.1,0.6-1.4,2-0.8,3c0.6,1.1,2,1.4,3,0.8c1.2-0.7,0.8-1.1,2.1-2c0.7-0.5,2-0.3,2.8-0.9
					c0.7-0.5,1-1.8,1.8-2.4c0.7-0.5,2-0.4,2.8-0.9c0.8-0.6,1.2-1.4,2-2c0.8-0.6,1.9-0.8,2.6-1.3c0.8-0.6,1.5-1.1,2.2-1.6
					c1.4-1,2.5-2.3,2.5-2.3s-1.7,0.3-3.2,1c-0.7,0.3-1.5,0.7-2.5,1.1c-0.8,0.4-1.5,1.2-2.4,1.6c-0.8,0.4-1.8,0.3-2.7,0.7
					c-0.9,0.4-1.4,1.6-2.2,2c-0.9,0.4-2.1,0-2.9,0.4c-0.9,0.4-1.5,1.6-2.2,2C22.5,96,22.4,95.5,21.2,96.2z"/>
				<path fill="#FFFFFF" d="M21.1,80.9c-1,0.2-1.6,1.1-1.4,2.1c0.2,1,1.1,1.6,2.1,1.4c1.1-0.2,0.9-0.6,2.1-0.9
					c0.6-0.2,1.6,0.3,2.4,0.1c0.7-0.2,1.2-1.1,2-1.3c0.7-0.2,1.6,0.3,2.4,0.1c0.7-0.2,1.3-0.7,2-1c0.8-0.2,1.6-0.1,2.3-0.3
					c0.8-0.2,1.5-0.4,2.1-0.6c1.3-0.4,2.5-1,2.5-1s-1.3-0.2-2.7-0.1c-0.7,0-1.3,0.1-2.2,0.2c-0.7,0.1-1.5,0.5-2.3,0.5
					c-0.7,0.1-1.5-0.2-2.2-0.2c-0.8,0.1-1.5,0.8-2.2,0.9c-0.8,0.1-1.6-0.6-2.3-0.5c-0.8,0.1-1.5,0.8-2.2,0.9
					C22.2,81.2,22.3,80.7,21.1,80.9z"/>
			</g>
		</g>
	</g>
	<circle fill="#261D38" cx="67.3" cy="44.6" r="1.1"/>
	<circle fill="#261D38" cx="66.9" cy="47.4" r="0.6"/>
	<circle fill="#261D38" cx="60.9" cy="45.8" r="0.6"/>
	<circle fill="#261D38" cx="65.1" cy="45.2" r="0.6"/>
	<circle fill="#261D38" cx="66.3" cy="45.6" r="0.6"/>
	<circle fill="#261D38" cx="64.1" cy="47.7" r="0.6"/>
	<circle fill="#261D38" cx="63.2" cy="44.7" r="0.6"/>
	<circle fill="#261D38" cx="65.7" cy="51.1" r="0.6"/>
	<circle fill="#261D38" cx="66.7" cy="43.8" r="0.6"/>
	<circle fill="#261D38" cx="68.1" cy="46.2" r="0.6"/>
	<circle fill="#261D38" cx="65.6" cy="48.7" r="0.3"/>
	<circle fill="#261D38" cx="67.8" cy="36.1" r="0.3"/>
	<circle fill="#261D38" cx="67.3" cy="35.2" r="0.3"/>
	<circle fill="#261D38" cx="66.9" cy="35.9" r="0.3"/>
	<circle fill="#261D38" cx="64.7" cy="34.7" r="0.3"/>
	<circle fill="#261D38" cx="65.6" cy="35.9" r="0.3"/>
	<circle fill="#261D38" cx="66.6" cy="36.9" r="0.3"/>
	<circle fill="#261D38" cx="67.9" cy="34" r="0.3"/>
	<circle fill="#261D38" cx="67.2" cy="34.3" r="0.3"/>
	<circle fill="#261D38" cx="68.1" cy="36.5" r="0.3"/>
	<circle fill="#261D38" cx="67.6" cy="35" r="0.3"/>
	<circle fill="#261D38" cx="66.5" cy="35" r="0.3"/>
	<circle fill="#261D38" cx="61.7" cy="44.6" r="0.3"/>
	<circle fill="#261D38" cx="62.6" cy="45.8" r="0.3"/>
	<circle fill="#261D38" cx="67.2" cy="49.3" r="0.3"/>
	<circle fill="#261D38" cx="65.6" cy="46.8" r="0.3"/>
	<circle fill="#261D38" cx="63.8" cy="49.7" r="0.3"/>
	<circle fill="#261D38" cx="64" cy="46.1" r="0.3"/>
	<circle fill="#261D38" cx="65" cy="44" r="0.3"/>
	<circle fill="#261D38" cx="62.3" cy="47.1" r="0.3"/>
	<circle fill="#261D38" cx="53.9" cy="31.2" r="0.3"/>
	<circle fill="#261D38" cx="54.4" cy="30.3" r="0.3"/>
	<circle fill="#261D38" cx="54.8" cy="31" r="0.3"/>
	<circle fill="#261D38" cx="56.5" cy="29.8" r="0.3"/>
	<circle fill="#261D38" cx="56.2" cy="31" r="0.3"/>
	<circle fill="#261D38" cx="55.1" cy="32" r="0.3"/>
	<circle fill="#261D38" cx="53.8" cy="29.1" r="0.3"/>
	<circle fill="#261D38" cx="54.5" cy="29.4" r="0.3"/>
	<circle fill="#261D38" cx="53.8" cy="31.7" r="0.3"/>
	<circle fill="#261D38" cx="54" cy="30.1" r="0.4"/>
	<circle fill="#261D38" cx="55.2" cy="30.1" r="0.3"/>
	<circle fill="#261D38" cx="67.6" cy="26.4" r="0.3"/>
	<circle fill="#261D38" cx="67.1" cy="25.5" r="0.3"/>
	<circle fill="#261D38" cx="66.8" cy="26.2" r="0.3"/>
	<circle fill="#261D38" cx="64.5" cy="25" r="0.3"/>
	<circle fill="#261D38" cx="65.7" cy="21.8" r="0.3"/>
	<circle fill="#261D38" cx="64.5" cy="21.9" r="0.3"/>
	<circle fill="#261D38" cx="65.2" cy="21.1" r="0.3"/>
	<circle fill="#261D38" cx="64.5" cy="20.4" r="0.3"/>
	<circle fill="#261D38" cx="63.3" cy="21.1" r="0.3"/>
	<circle fill="#261D38" cx="65.2" cy="21.8" r="0.3"/>
	<circle fill="#261D38" cx="65.7" cy="21.1" r="0.3"/>
	<circle fill="#261D38" cx="64.2" cy="19.2" r="0.3"/>
	<circle fill="#261D38" cx="64.2" cy="21.2" r="0.3"/>
	<circle fill="#261D38" cx="56.3" cy="21.8" r="0.3"/>
	<circle fill="#261D38" cx="57.5" cy="21.9" r="0.3"/>
	<circle fill="#261D38" cx="56.8" cy="21.1" r="0.3"/>
	<circle fill="#261D38" cx="57.4" cy="20.4" r="0.3"/>
	<circle fill="#261D38" cx="58.6" cy="21.1" r="0.3"/>
	<circle fill="#261D38" cx="56.8" cy="21.8" r="0.3"/>
	<circle fill="#261D38" cx="56.3" cy="21.1" r="0.3"/>
	<circle fill="#261D38" cx="57.7" cy="19.2" r="0.3"/>
	<circle fill="#261D38" cx="57.8" cy="21.2" r="0.3"/>
	<circle fill="#261D38" cx="65.4" cy="26.2" r="0.3"/>
	<circle fill="#261D38" cx="66.5" cy="27.1" r="0.3"/>
	<circle fill="#261D38" cx="67.8" cy="24.3" r="0.3"/>
	<circle fill="#261D38" cx="67.1" cy="24.5" r="0.3"/>
	<circle fill="#261D38" cx="67.9" cy="26.7" r="0.3"/>
	<circle fill="#261D38" cx="67.5" cy="25.3" r="0.3"/>
	<circle fill="#261D38" cx="66.3" cy="25.3" r="0.3"/>
	
		<line fill="none" stroke="#261D38" stroke-width="1.9145" stroke-linecap="round" stroke-linejoin="round" stroke-miterlimit="10" x1="55.2" y1="42.8" x2="60.7" y2="37.8"/>
	
		<line fill="none" stroke="#261D38" stroke-width="0.5471" stroke-linecap="round" stroke-linejoin="round" stroke-miterlimit="10" x1="58.3" y1="42.8" x2="63.7" y2="37.8"/>
	
		<line fill="none" stroke="#261D38" stroke-width="1.6412" stroke-linecap="round" stroke-linejoin="round" stroke-miterlimit="10" x1="61" y1="42.8" x2="66.4" y2="37.8"/>
	<circle fill="#261D38" cx="60.9" cy="88" r="0.3"/>
	<circle fill="#261D38" cx="60.7" cy="86.7" r="0.3"/>
	<circle fill="#261D38" cx="60.2" cy="87.4" r="0.3"/>
	<circle fill="#261D38" cx="59.9" cy="85.6" r="0.3"/>
	<circle fill="#261D38" cx="59.8" cy="86.4" r="0.3"/>
	<circle fill="#261D38" cx="61.2" cy="85" r="0.3"/>
	<circle fill="#261D38" cx="61.5" cy="83.7" r="0.3"/>
	<circle fill="#261D38" cx="60.9" cy="82.2" r="0.3"/>
	<circle fill="#261D38" cx="58.9" cy="83.4" r="0.3"/>
	<circle fill="#261D38" cx="60.9" cy="85.8" r="0.3"/>
	<circle fill="#261D38" cx="59.6" cy="84.7" r="0.3"/>
	<circle fill="#261D38" cx="58.6" cy="85" r="0.3"/>
	<circle fill="#261D38" cx="61.5" cy="87.1" r="0.3"/>
	<circle fill="#261D38" cx="60.2" cy="83.7" r="0.3"/>
	<circle fill="#261D38" cx="60.6" cy="87.7" r="0.3"/>
	<circle fill="#261D38" cx="61.5" cy="86.3" r="0.3"/>
</g>
</svg>
